<?xml version="1.0" standalone="no"?>
<!DOCTYPE svg PUBLIC "-//W3C//DTD SVG 20010904//EN"
 "http://www.w3.org/TR/2001/REC-SVG-20010904/DTD/svg10.dtd">
<svg version="1.0" xmlns="http://www.w3.org/2000/svg"
 width="300.000000pt" height="300.000000pt" viewBox="0 0 300.000000 300.000000"
 preserveAspectRatio="xMidYMid meet">
<metadata>
Created by potrace 1.10, written by Peter Selinger 2001-2011
</metadata>
<g transform="translate(0.000000,300.000000) scale(0.100000,-0.100000)"
fill="#000000" stroke="none">
<path d="M1867 1933 c-13 -13 -7 -43 7 -37 17 7 32 -14 19 -27 -5 -5 -24 2
-46 16 -33 23 -37 24 -38 8 -5 -158 -9 -176 -62 -268 -66 -114 -65 -108 -27
-100 30 7 31 6 21 -14 -9 -16 -9 -21 1 -21 18 0 47 20 31 20 -7 0 -13 4 -13 9
0 5 21 8 46 6 50 -4 77 2 68 17 -3 5 -19 6 -36 3 l-30 -7 4 84 c4 71 10 93 38
146 18 34 37 62 42 62 22 0 111 -68 133 -102 31 -46 31 -48 0 -48 -14 0 -25
-4 -25 -10 0 -5 23 -10 51 -10 43 0 50 -3 47 -17 -2 -14 -15 -19 -51 -21 -50
-3 -66 -22 -19 -22 26 -1 25 -2 -12 -20 -22 -11 -48 -20 -58 -20 -11 0 -17 -3
-15 -7 3 -5 -29 -25 -70 -46 -67 -34 -74 -36 -68 -18 4 12 2 21 -4 21 -6 0
-11 -6 -11 -12 0 -7 -3 -24 -7 -37 -6 -22 -2 -21 83 22 l89 46 98 -3 c104 -4
113 1 75 41 -19 21 -20 25 -8 49 17 32 4 58 -32 62 -16 2 -30 13 -37 29 -14
30 -9 40 9 18 7 -8 17 -15 22 -15 6 0 23 -9 39 -21 26 -18 29 -26 29 -75 0
-30 5 -54 10 -54 6 0 10 20 10 45 0 25 5 45 10 45 6 0 10 -23 10 -51 0 -35 4
-49 12 -47 8 3 11 21 9 51 -1 26 0 47 4 47 3 0 25 -20 49 -45 62 -63 76 -60
76 15 0 33 -4 60 -10 60 -5 0 -10 -21 -10 -47 l0 -47 -48 47 c-44 43 -82 61
-82 37 0 -5 -40 17 -90 50 -82 56 -93 67 -131 136 -36 65 -43 73 -54 58 -11
-16 -13 -15 -27 4 -8 12 -18 19 -21 15z m83 -77 c0 -5 7 -18 17 -28 21 -24 6
-23 -34 2 -32 19 -46 47 -19 37 10 -4 12 1 9 16 -5 22 -5 22 10 2 9 -11 17
-24 17 -29z m-85 0 c12 -12 12 -18 -5 -39 -11 -14 -24 -36 -29 -49 -8 -18 -10
-10 -10 40 -1 50 2 62 15 62 8 0 22 -6 29 -14z m-70 -218 c-2 -24 -4 -55 -4
-70 -1 -25 -5 -28 -36 -28 l-35 0 27 51 c16 29 32 60 38 70 5 11 11 19 12 19
1 0 0 -19 -2 -42z m295 -63 c7 -8 19 -15 26 -15 8 0 14 -4 14 -10 0 -6 -30
-10 -71 -10 -44 0 -68 4 -64 10 3 6 13 10 21 10 8 0 14 4 14 9 0 8 14 15 41
20 4 0 12 -6 19 -14z"/>
<path d="M520 1779 c0 -26 3 -30 23 -27 16 2 23 11 25 31 3 23 0 27 -22 27
-22 0 -26 -4 -26 -31z"/>
<path d="M625 1788 c6 -17 4 -20 -10 -15 -11 5 -15 3 -13 -5 8 -24 33 -13 36
15 2 15 -2 27 -8 27 -7 0 -9 -8 -5 -22z"/>
<path d="M670 1796 c0 -8 8 -17 18 -19 16 -4 16 -5 0 -6 -25 -1 -23 -21 1 -21
28 0 37 21 17 36 -16 12 -16 13 1 17 12 3 9 5 -9 6 -18 1 -28 -4 -28 -13z"/>
<path d="M752 1783 c3 -26 38 -48 38 -24 0 6 -7 11 -15 11 -8 0 -15 5 -15 10
0 6 7 10 15 10 8 0 15 5 15 10 0 6 -9 10 -21 10 -16 0 -20 -5 -17 -27z"/>
<path d="M820 1785 c0 -28 25 -44 43 -26 8 8 5 11 -14 12 l-24 1 25 8 25 8
-25 2 -25 2 25 8 25 8 -27 1 c-24 1 -28 -3 -28 -24z"/>
<path d="M927 1803 c-11 -11 -8 -65 3 -58 6 4 8 10 5 15 -3 4 4 6 15 3 16 -4
18 -9 9 -25 -8 -16 -8 -23 2 -29 11 -7 11 -9 -2 -9 -25 0 -68 -48 -80 -90 -10
-33 -9 -44 9 -82 12 -24 35 -51 51 -61 38 -22 98 -22 137 2 32 20 64 74 64
111 0 61 -69 132 -128 133 -15 0 -21 2 -14 4 14 5 17 69 3 78 -6 3 -14 -2 -19
-10 -9 -16 -42 -11 -42 7 0 5 4 7 9 3 5 -3 12 -1 16 5 7 11 -28 14 -38 3z
m146 -133 c53 -42 53 -138 0 -180 -17 -13 -41 -20 -70 -20 -37 0 -50 5 -73 30
-71 76 -26 190 75 190 27 0 51 -7 68 -20z"/>
<path d="M940 1580 l0 -90 59 0 c44 0 60 4 65 16 9 24 9 24 -39 24 -38 0 -45
3 -45 20 0 16 7 20 35 20 27 0 35 4 35 18 0 13 -8 17 -32 17 -17 0 -33 6 -35
13 -3 8 9 12 42 12 39 0 46 3 41 16 -3 9 -6 18 -6 20 0 2 -27 4 -60 4 l-60 0
0 -90z"/>
<path d="M1456 1714 l-49 -55 -49 48 c-27 26 -49 44 -47 38 5 -29 -2 -44 -18
-38 -14 5 -13 1 6 -25 23 -33 54 -55 64 -46 3 3 5 -1 3 -8 -1 -8 -21 -37 -44
-64 -43 -50 -54 -78 -27 -68 10 4 15 0 15 -12 1 -17 3 -16 23 6 12 14 34 41
48 59 l27 34 45 -37 c43 -35 46 -36 56 -18 7 13 7 23 -2 32 -10 10 -9 11 3 6
8 -4 -2 7 -22 25 l-38 32 40 43 c43 47 48 61 25 70 -12 5 -13 10 -4 20 6 8 8
14 3 13 -5 0 -31 -25 -58 -55z"/>
<path d="M2580 1728 c0 -15 48 -31 67 -23 10 5 24 7 32 6 7 -1 10 2 6 8 -3 6
-2 11 3 11 6 0 12 -7 16 -15 8 -21 22 -19 22 4 0 18 -7 20 -73 19 -40 -1 -73
-5 -73 -10z"/>
<path d="M256 1703 c-9 -23 9 -39 28 -24 13 11 13 15 1 27 -18 18 -21 18 -29
-3z"/>
<path d="M334 1696 c-17 -8 -40 -26 -52 -40 -82 -105 29 -253 151 -202 100 41
102 200 2 242 -42 17 -61 17 -101 0z m91 -20 c91 -38 90 -164 -2 -203 -61 -25
-124 8 -144 76 -14 47 6 92 54 121 38 24 47 24 92 6z"/>
<path d="M360 1581 c0 -91 0 -91 25 -91 l26 0 -3 88 c-3 82 -4 87 -25 90 -22
3 -23 1 -23 -87z"/>
<path d="M2263 1703 c32 -2 81 -2 110 0 29 2 3 3 -58 3 -60 0 -84 -1 -52 -3z"/>
<path d="M2570 1677 c0 -7 11 -24 24 -36 14 -13 26 -38 28 -55 4 -39 21 -37
29 4 4 18 19 44 33 59 14 15 26 30 26 34 0 16 -21 5 -48 -24 -29 -31 -30 -32
-41 -11 -15 28 -51 48 -51 29z"/>
<path d="M582 1673 c-65 -4 -73 -6 -66 -21 13 -29 16 -119 5 -141 -11 -20 -10
-21 54 -21 58 0 65 2 65 20 0 17 -7 20 -40 20 -33 0 -40 3 -40 20 0 16 7 20
30 20 24 0 30 4 30 21 0 17 -5 20 -32 17 -20 -2 -33 2 -36 11 -4 11 7 13 55 9
33 -3 67 -2 74 3 12 7 11 9 -1 9 -13 0 -13 1 0 10 13 9 13 11 0 20 -8 5 -17 9
-20 8 -3 -1 -38 -4 -78 -5z"/>
<path d="M710 1649 c0 -28 1 -29 46 -22 l47 6 -5 -71 c-5 -70 -5 -72 18 -72
23 0 24 3 24 70 0 53 3 70 14 70 12 0 31 29 24 35 -2 1 -40 5 -85 7 l-83 5 0
-28z"/>
<path d="M1840 1670 c0 -5 14 -10 30 -10 29 0 30 -1 30 -50 0 -27 5 -50 10
-50 6 0 10 23 10 50 0 49 1 50 30 50 17 0 30 5 30 10 0 6 -30 10 -70 10 -40 0
-70 -4 -70 -10z"/>
<path d="M2362 1618 c2 -35 8 -63 13 -63 6 0 11 28 13 63 2 51 0 62 -13 62
-13 0 -15 -11 -13 -62z"/>
<path d="M2400 1670 c0 -5 13 -10 29 -10 29 0 30 -2 33 -50 4 -67 22 -69 26
-2 3 50 4 52 33 52 16 0 29 5 29 10 0 6 -32 10 -75 10 -43 0 -75 -4 -75 -10z"/>
<path d="M2318 1523 c79 -2 205 -2 280 0 75 1 11 3 -143 3 -154 0 -216 -2
-137 -3z"/>
</g>
</svg>
